<?xml version="1.0" standalone="no"?>
<!DOCTYPE svg PUBLIC "-//W3C//DTD SVG 20010904//EN"
 "http://www.w3.org/TR/2001/REC-SVG-20010904/DTD/svg10.dtd">
<svg version="1.0" xmlns="http://www.w3.org/2000/svg"
 width="512.000000pt" height="512.000000pt" viewBox="0 0 512.000000 512.000000"
 preserveAspectRatio="xMidYMid meet">
<metadata>
Created by potrace 1.11, written by Peter Selinger 2001-2013
</metadata>
<g transform="translate(0.000000,512.000000) scale(0.100000,-0.100000)"
fill="#000000" stroke="none">
<path d="M1328 4805 c-2 -2 -25 -5 -53 -9 -93 -11 -255 -57 -255 -73 0 -18
350 -354 361 -347 8 4 9 3 5 -5 -5 -7 41 -60 124 -143 72 -72 139 -145 148
-162 11 -21 17 -55 17 -106 0 -98 -11 -114 -201 -301 -116 -114 -160 -150
-197 -164 -54 -20 -126 -16 -179 11 -18 9 -171 154 -340 322 -169 168 -309
304 -311 301 -10 -12 -39 -124 -50 -195 -32 -201 2 -422 93 -606 63 -128 171
-264 269 -338 18 -14 38 -30 44 -35 37 -32 182 -109 252 -135 140 -51 334 -75
456 -57 32 5 40 1 77 -39 23 -24 47 -44 52 -44 6 0 10 -4 10 -9 0 -12 258
-271 271 -271 5 0 9 -4 9 -9 0 -12 1259 -1271 1271 -1271 5 0 9 -4 9 -9 0 -9
517 -529 558 -561 45 -36 161 -95 204 -104 13 -3 39 -9 58 -14 78 -19 280 0
314 30 6 4 17 8 26 8 26 0 161 90 153 102 -3 6 -2 8 4 5 11 -7 93 75 93 92 0
6 4 11 9 11 13 0 62 101 54 113 -3 6 -1 7 5 3 7 -4 14 7 19 31 9 48 8 44 19
68 13 29 8 280 -6 280 -1 0 -3 9 -5 20 -7 34 -38 98 -78 162 -28 43 -367 388
-1129 1150 l-1089 1088 7 70 c8 77 7 206 -1 245 -3 14 -7 39 -10 55 -8 50 -10
60 -18 73 -5 6 -6 12 -3 12 10 0 -55 165 -89 228 -151 274 -434 471 -745 518
-43 6 -227 13 -232 9z m1158 -2731 c1 -9 0 -13 -4 -10 -3 4 -7 14 -8 22 -1 9
0 13 4 10 3 -4 7 -14 8 -22z m1801 -789 c74 -34 136 -102 161 -178 52 -158
-16 -316 -165 -384 -178 -81 -398 31 -430 219 -4 23 -6 47 -5 52 2 4 -3 15
-10 24 -10 12 -10 14 0 8 8 -5 12 2 12 24 0 43 42 127 85 172 38 38 106 76
159 88 52 11 138 0 193 -25z"/>
<path d="M4180 4806 c-3 -2 -23 -7 -45 -10 -22 -4 -71 -21 -110 -38 -67 -30
-96 -57 -662 -622 -326 -325 -593 -595 -593 -600 0 -5 36 -44 79 -87 l79 -78
245 244 c135 134 242 247 239 250 -3 3 0 5 5 5 14 0 233 218 233 233 0 5 2 8
5 5 3 -3 108 97 233 222 201 200 232 228 264 232 20 2 35 1 33 -3 -3 -3 4 -14
15 -24 24 -22 26 -53 4 -83 -8 -12 -276 -283 -595 -602 l-580 -580 92 -91 91
-91 30 29 c16 15 201 200 411 411 330 331 704 703 741 738 12 11 38 12 73 0
25 -8 43 -53 32 -81 -4 -11 -271 -283 -593 -605 -322 -322 -586 -588 -586
-592 0 -4 36 -44 79 -87 l80 -80 86 84 c52 51 83 90 79 97 -4 7 -3 8 4 4 12
-7 82 55 82 73 0 6 6 11 13 11 15 0 48 36 40 44 -4 3 -1 6 5 6 20 0 184 169
176 182 -4 7 -3 8 4 4 15 -9 85 60 76 75 -4 7 -3 9 4 5 15 -9 165 140 156 156
-4 7 -4 10 1 6 11 -10 45 10 45 27 0 8 5 15 10 15 19 0 191 180 184 192 -4 6
-3 8 4 4 15 -9 75 51 66 66 -4 7 -3 8 5 4 12 -8 61 38 122 114 77 95 108 189
104 317 -1 48 -5 101 -9 116 -43 176 -189 323 -366 370 -53 13 -181 23 -190
13z"/>
<path d="M1522 1827 l-333 -334 -140 -28 c-77 -15 -146 -33 -153 -39 -7 -6
-65 -90 -128 -186 -184 -281 -390 -594 -400 -606 -5 -8 27 -47 93 -112 91 -91
104 -100 123 -90 12 6 23 14 26 17 8 9 69 51 74 51 8 0 101 64 104 73 2 4 7 7
12 7 6 0 161 99 250 160 8 6 74 49 145 95 72 47 129 90 127 96 -1 6 2 8 7 4
22 -13 49 19 56 64 4 25 13 71 20 101 8 30 16 69 18 85 3 17 9 39 13 50 4 11
112 125 241 254 128 128 230 238 226 244 -3 5 -1 7 4 4 10 -6 193 166 193 181
0 8 -232 242 -240 242 -3 0 -155 -150 -338 -333z"/>
</g>
</svg>
